<mxfile host="Electron" modified="2024-08-01T13:07:10.415Z" agent="Mozilla/5.0 (X11; Linux x86_64) AppleWebKit/537.36 (KHTML, like Gecko) draw.io/24.6.4 Chrome/124.0.6367.207 Electron/30.0.6 Safari/537.36" etag="zyI47ipoSUmWjdJ53j3T" version="24.6.4" type="device">
  <diagram name="Page-1" id="Ev9KHV8LbVD18_9U95kE">
    <mxGraphModel dx="802" dy="481" grid="1" gridSize="10" guides="1" tooltips="1" connect="1" arrows="1" fold="1" page="1" pageScale="1" pageWidth="2339" pageHeight="3300" math="0" shadow="0">
      <root>
        <mxCell id="0" />
        <mxCell id="1" parent="0" />
        <mxCell id="lRbjT1NGwTPiWCWEcdZG-6" style="edgeStyle=orthogonalEdgeStyle;rounded=1;orthogonalLoop=1;jettySize=auto;html=1;strokeWidth=3;curved=0;endArrow=classicThin;endFill=1;jumpStyle=line;strokeColor=#4D4D4D;" parent="1" source="JzUydqIJ6qVtRUPiUywM-14" target="Jraj2u1gfLjr0mIL1iTk-41" edge="1">
          <mxGeometry relative="1" as="geometry">
            <Array as="points">
              <mxPoint x="350" y="585" />
              <mxPoint x="350" y="655" />
            </Array>
          </mxGeometry>
        </mxCell>
        <mxCell id="lRbjT1NGwTPiWCWEcdZG-7" style="edgeStyle=orthogonalEdgeStyle;rounded=1;orthogonalLoop=1;jettySize=auto;html=1;strokeWidth=3;curved=0;endArrow=classicThin;endFill=1;jumpStyle=line;strokeColor=#4D4D4D;exitX=1;exitY=0.5;exitDx=0;exitDy=0;" parent="1" source="JzUydqIJ6qVtRUPiUywM-14" target="n4PZmjlwthrs9iT0Sboe-10" edge="1">
          <mxGeometry relative="1" as="geometry">
            <mxPoint x="650" y="490" as="sourcePoint" />
            <mxPoint x="710" y="529" as="targetPoint" />
            <Array as="points">
              <mxPoint x="350" y="585" />
              <mxPoint x="350" y="680" />
            </Array>
          </mxGeometry>
        </mxCell>
        <mxCell id="lRbjT1NGwTPiWCWEcdZG-8" style="edgeStyle=orthogonalEdgeStyle;rounded=1;orthogonalLoop=1;jettySize=auto;html=1;strokeWidth=3;curved=0;endArrow=classicThin;endFill=1;jumpStyle=line;strokeColor=#4D4D4D;" parent="1" source="JzUydqIJ6qVtRUPiUywM-14" target="n4PZmjlwthrs9iT0Sboe-1" edge="1">
          <mxGeometry relative="1" as="geometry">
            <Array as="points">
              <mxPoint x="350" y="585" />
              <mxPoint x="350" y="477" />
            </Array>
          </mxGeometry>
        </mxCell>
        <mxCell id="lRbjT1NGwTPiWCWEcdZG-9" style="edgeStyle=orthogonalEdgeStyle;rounded=1;orthogonalLoop=1;jettySize=auto;html=1;strokeWidth=3;curved=0;endArrow=classicThin;endFill=1;jumpStyle=line;strokeColor=#4D4D4D;" parent="1" source="JzUydqIJ6qVtRUPiUywM-14" target="n4PZmjlwthrs9iT0Sboe-3" edge="1">
          <mxGeometry relative="1" as="geometry">
            <Array as="points">
              <mxPoint x="350" y="585" />
              <mxPoint x="350" y="506" />
            </Array>
          </mxGeometry>
        </mxCell>
        <mxCell id="JzUydqIJ6qVtRUPiUywM-14" value="&lt;font style=&quot;font-size: 17px;&quot;&gt;Simulated UAV&lt;/font&gt;" style="swimlane;whiteSpace=wrap;html=1;rounded=1;fillColor=#ffe6cc;strokeColor=#D79B00;strokeWidth=4;perimeterSpacing=0;fillStyle=auto;startSize=20;fontSize=17;" parent="1" vertex="1" collapsed="1">
          <mxGeometry x="364.38" y="570" width="274" height="30" as="geometry">
            <mxRectangle x="358" y="430" width="290" height="90" as="alternateBounds" />
          </mxGeometry>
        </mxCell>
        <mxCell id="n4PZmjlwthrs9iT0Sboe-29" style="edgeStyle=orthogonalEdgeStyle;rounded=1;orthogonalLoop=1;jettySize=auto;html=1;strokeWidth=3;curved=0;endArrow=classicThin;endFill=1;startArrow=classicThin;startFill=1;jumpStyle=line;strokeColor=#4D4D4D;" parent="1" source="n4PZmjlwthrs9iT0Sboe-9" target="n4PZmjlwthrs9iT0Sboe-12" edge="1">
          <mxGeometry relative="1" as="geometry">
            <mxPoint x="1030" y="650" as="sourcePoint" />
            <Array as="points">
              <mxPoint x="350" y="850" />
              <mxPoint x="350" y="740" />
            </Array>
          </mxGeometry>
        </mxCell>
        <mxCell id="n4PZmjlwthrs9iT0Sboe-13" value="&lt;span style=&quot;font-size: 17px; text-wrap: nowrap;&quot;&gt;Program&amp;nbsp;&lt;/span&gt;&lt;div&gt;&lt;span style=&quot;font-size: 17px; text-wrap: nowrap;&quot;&gt;Controller&lt;/span&gt;&lt;/div&gt;" style="swimlane;whiteSpace=wrap;html=1;rounded=1;fillColor=#CCFFE6;strokeColor=#00994D;strokeWidth=4;perimeterSpacing=0;fillStyle=auto;startSize=40;fontSize=17;" parent="1" vertex="1">
          <mxGeometry x="508.38" y="780" width="130" height="140" as="geometry" />
        </mxCell>
        <mxCell id="lRbjT1NGwTPiWCWEcdZG-21" value="&lt;font style=&quot;font-size: 15px;&quot;&gt;Choreographes:&amp;nbsp;&lt;/font&gt;&lt;div&gt;&lt;font style=&quot;font-size: 15px;&quot;&gt;• Program&amp;nbsp;&lt;/font&gt;&lt;/div&gt;&lt;div&gt;&lt;font style=&quot;font-size: 15px;&quot;&gt;• Instances&lt;/font&gt;&lt;/div&gt;&lt;div&gt;&lt;font style=&quot;font-size: 15px;&quot;&gt;• Data Flow&amp;nbsp;&lt;/font&gt;&lt;/div&gt;" style="text;html=1;align=left;verticalAlign=middle;resizable=0;points=[];autosize=1;strokeColor=none;fillColor=none;fontSize=17;fontStyle=1" parent="n4PZmjlwthrs9iT0Sboe-13" vertex="1">
          <mxGeometry x="2" y="35" width="140" height="100" as="geometry" />
        </mxCell>
        <mxCell id="lRbjT1NGwTPiWCWEcdZG-1" style="edgeStyle=orthogonalEdgeStyle;rounded=1;orthogonalLoop=1;jettySize=auto;html=1;startArrow=classicThin;startFill=1;strokeWidth=3;curved=0;endArrow=classicThin;endFill=1;jumpStyle=line;strokeColor=#4D4D4D;" parent="1" source="n4PZmjlwthrs9iT0Sboe-11" target="n4PZmjlwthrs9iT0Sboe-1" edge="1">
          <mxGeometry relative="1" as="geometry">
            <mxPoint x="701" y="615" as="sourcePoint" />
            <mxPoint x="610" y="630" as="targetPoint" />
            <Array as="points">
              <mxPoint x="660" y="705" />
              <mxPoint x="660" y="477" />
            </Array>
          </mxGeometry>
        </mxCell>
        <mxCell id="lRbjT1NGwTPiWCWEcdZG-2" style="edgeStyle=orthogonalEdgeStyle;rounded=1;orthogonalLoop=1;jettySize=auto;html=1;startArrow=classicThin;startFill=1;strokeWidth=3;curved=0;endArrow=classicThin;endFill=1;jumpStyle=line;strokeColor=#4D4D4D;entryX=1;entryY=0.5;entryDx=0;entryDy=0;" parent="1" source="n4PZmjlwthrs9iT0Sboe-11" target="n4PZmjlwthrs9iT0Sboe-3" edge="1">
          <mxGeometry relative="1" as="geometry">
            <mxPoint x="701" y="635" as="sourcePoint" />
            <mxPoint x="553" y="695" as="targetPoint" />
            <Array as="points">
              <mxPoint x="660" y="705" />
              <mxPoint x="660" y="506" />
            </Array>
          </mxGeometry>
        </mxCell>
        <mxCell id="lRbjT1NGwTPiWCWEcdZG-5" style="edgeStyle=orthogonalEdgeStyle;rounded=1;orthogonalLoop=1;jettySize=auto;html=1;startArrow=classicThin;startFill=1;strokeWidth=3;curved=0;endArrow=classicThin;endFill=1;jumpStyle=line;strokeColor=#4D4D4D;" parent="1" edge="1">
          <mxGeometry relative="1" as="geometry">
            <mxPoint x="612.51" y="705" as="sourcePoint" />
            <mxPoint x="613.51" y="533" as="targetPoint" />
            <Array as="points">
              <mxPoint x="660" y="705" />
              <mxPoint x="660" y="533" />
            </Array>
          </mxGeometry>
        </mxCell>
        <mxCell id="n4PZmjlwthrs9iT0Sboe-7" value="&lt;font style=&quot;font-size: 17px;&quot;&gt;Observer&lt;/font&gt;" style="swimlane;whiteSpace=wrap;html=1;rounded=1;fillColor=#CCCCFF;strokeColor=#4C0099;strokeWidth=4;perimeterSpacing=0;fillStyle=auto;startSize=20;fontSize=17;" parent="1" vertex="1">
          <mxGeometry x="366.01" y="610" width="274" height="150" as="geometry" />
        </mxCell>
        <mxCell id="Jraj2u1gfLjr0mIL1iTk-41" value="Visual ID System" style="swimlane;fontSize=17;rounded=1;startSize=28;" parent="n4PZmjlwthrs9iT0Sboe-7" vertex="1">
          <mxGeometry x="23.5" y="25" width="223" height="20" as="geometry">
            <mxRectangle x="1210" y="720" width="250" height="30" as="alternateBounds" />
          </mxGeometry>
        </mxCell>
        <mxCell id="lRbjT1NGwTPiWCWEcdZG-31" style="edgeStyle=orthogonalEdgeStyle;rounded=1;orthogonalLoop=1;jettySize=auto;html=1;startArrow=classic;startFill=1;strokeWidth=2;curved=0;strokeColor=#666666;endArrow=none;endFill=0;" parent="n4PZmjlwthrs9iT0Sboe-7" source="n4PZmjlwthrs9iT0Sboe-11" target="n4PZmjlwthrs9iT0Sboe-10" edge="1">
          <mxGeometry relative="1" as="geometry" />
        </mxCell>
        <mxCell id="n4PZmjlwthrs9iT0Sboe-11" value="UTM Accumulator" style="swimlane;fontSize=17;rounded=1;startSize=28;" parent="n4PZmjlwthrs9iT0Sboe-7" vertex="1">
          <mxGeometry x="23.5" y="87" width="223" height="20" as="geometry">
            <mxRectangle x="1210" y="720" width="250" height="30" as="alternateBounds" />
          </mxGeometry>
        </mxCell>
        <mxCell id="lRbjT1NGwTPiWCWEcdZG-28" style="edgeStyle=orthogonalEdgeStyle;rounded=1;orthogonalLoop=1;jettySize=auto;html=1;strokeWidth=2;startArrow=classic;startFill=1;strokeColor=#666666;curved=0;endArrow=none;endFill=0;" parent="n4PZmjlwthrs9iT0Sboe-7" source="n4PZmjlwthrs9iT0Sboe-12" target="n4PZmjlwthrs9iT0Sboe-11" edge="1">
          <mxGeometry relative="1" as="geometry" />
        </mxCell>
        <mxCell id="n4PZmjlwthrs9iT0Sboe-12" value="LLM Interface" style="swimlane;fontSize=17;rounded=1;startSize=28;" parent="n4PZmjlwthrs9iT0Sboe-7" vertex="1">
          <mxGeometry x="23.5" y="122" width="223" height="20" as="geometry">
            <mxRectangle x="1210" y="720" width="250" height="30" as="alternateBounds" />
          </mxGeometry>
        </mxCell>
        <mxCell id="n4PZmjlwthrs9iT0Sboe-10" value="Broadcast RID System" style="swimlane;fontSize=17;rounded=1;startSize=28;" parent="n4PZmjlwthrs9iT0Sboe-7" vertex="1">
          <mxGeometry x="23.5" y="50" width="223" height="20" as="geometry">
            <mxRectangle x="1210" y="720" width="250" height="30" as="alternateBounds" />
          </mxGeometry>
        </mxCell>
        <mxCell id="eyCXNu7XXG5yHVhoh6ZU-21" style="edgeStyle=orthogonalEdgeStyle;rounded=1;orthogonalLoop=1;jettySize=auto;html=1;startArrow=classicThin;startFill=1;strokeWidth=3;curved=0;endArrow=none;endFill=0;jumpStyle=line;strokeColor=#4D4D4D;entryX=1;entryY=0.5;entryDx=0;entryDy=0;" edge="1" parent="n4PZmjlwthrs9iT0Sboe-7">
          <mxGeometry relative="1" as="geometry">
            <mxPoint x="246.5" y="95" as="sourcePoint" />
            <mxPoint x="246.5" y="33" as="targetPoint" />
            <Array as="points">
              <mxPoint x="294" y="95" />
              <mxPoint x="294" y="33" />
            </Array>
          </mxGeometry>
        </mxCell>
        <mxCell id="n4PZmjlwthrs9iT0Sboe-8" value="&lt;span style=&quot;font-size: 17px; text-wrap: nowrap;&quot;&gt;UTM Components&lt;/span&gt;" style="swimlane;whiteSpace=wrap;html=1;rounded=1;fillColor=#FFCCCC;strokeColor=#990000;strokeWidth=4;perimeterSpacing=0;fillStyle=auto;startSize=22;fontSize=17;" parent="1" vertex="1">
          <mxGeometry x="366.01" y="440" width="274" height="113.5" as="geometry" />
        </mxCell>
        <mxCell id="n4PZmjlwthrs9iT0Sboe-1" value="Flight-plan Server" style="swimlane;fontSize=17;rounded=1;startSize=28;" parent="n4PZmjlwthrs9iT0Sboe-8" vertex="1" collapsed="1">
          <mxGeometry x="24.5" y="27" width="223" height="20" as="geometry">
            <mxRectangle x="44.5" y="50" width="201" height="60" as="alternateBounds" />
          </mxGeometry>
        </mxCell>
        <mxCell id="n4PZmjlwthrs9iT0Sboe-4" value="&lt;font style=&quot;font-size: 14px;&quot;&gt;Holds public flight-plans&lt;br&gt;&lt;/font&gt;" style="text;html=1;align=center;verticalAlign=middle;resizable=0;points=[];autosize=1;strokeColor=none;fillColor=none;" parent="n4PZmjlwthrs9iT0Sboe-1" vertex="1">
          <mxGeometry x="11" y="27" width="170" height="30" as="geometry" />
        </mxCell>
        <mxCell id="n4PZmjlwthrs9iT0Sboe-3" value="Net-RID Server" style="swimlane;fontSize=17;rounded=1;startSize=28;" parent="n4PZmjlwthrs9iT0Sboe-8" vertex="1" collapsed="1">
          <mxGeometry x="24.5" y="56" width="223" height="20" as="geometry">
            <mxRectangle x="44.5" y="120" width="201" height="60" as="alternateBounds" />
          </mxGeometry>
        </mxCell>
        <mxCell id="lRbjT1NGwTPiWCWEcdZG-24" value="&lt;font style=&quot;font-size: 14px;&quot;&gt;Holds sent Net-RID messages&lt;br&gt;&lt;/font&gt;" style="text;html=1;align=center;verticalAlign=middle;resizable=0;points=[];autosize=1;strokeColor=none;fillColor=none;" parent="n4PZmjlwthrs9iT0Sboe-3" vertex="1">
          <mxGeometry x="-9" y="25" width="210" height="30" as="geometry" />
        </mxCell>
        <mxCell id="n4PZmjlwthrs9iT0Sboe-5" value="No-Fly Zones Server" style="swimlane;fontSize=17;rounded=1;startSize=28;" parent="n4PZmjlwthrs9iT0Sboe-8" vertex="1" collapsed="1">
          <mxGeometry x="24.5" y="86" width="223" height="20" as="geometry">
            <mxRectangle x="44.5" y="190" width="201" height="60" as="alternateBounds" />
          </mxGeometry>
        </mxCell>
        <mxCell id="n4PZmjlwthrs9iT0Sboe-6" value="&lt;font style=&quot;font-size: 14px;&quot;&gt;Holds the no-fly zones&lt;br&gt;&lt;/font&gt;" style="text;html=1;align=center;verticalAlign=middle;resizable=0;points=[];autosize=1;strokeColor=none;fillColor=none;" parent="n4PZmjlwthrs9iT0Sboe-5" vertex="1">
          <mxGeometry x="16" y="27" width="160" height="30" as="geometry" />
        </mxCell>
        <mxCell id="n4PZmjlwthrs9iT0Sboe-9" value="&lt;span style=&quot;font-size: 17px; text-wrap: nowrap;&quot;&gt;LLM Instance&lt;/span&gt;" style="swimlane;whiteSpace=wrap;html=1;rounded=1;fillColor=#CCFFFF;strokeColor=#009999;strokeWidth=4;perimeterSpacing=0;fillStyle=auto;startSize=20;fontSize=17;" parent="1" vertex="1">
          <mxGeometry x="371.01" y="780" width="130" height="140" as="geometry" />
        </mxCell>
        <mxCell id="JzUydqIJ6qVtRUPiUywM-3" value="&lt;div style=&quot;font-size: 15px;&quot;&gt;&lt;font style=&quot;font-size: 15px;&quot;&gt;&lt;b style=&quot;&quot;&gt;Information&amp;nbsp;&lt;/b&gt;&lt;/font&gt;&lt;/div&gt;&lt;div style=&quot;font-size: 15px;&quot;&gt;&lt;font style=&quot;font-size: 15px;&quot;&gt;&lt;b&gt;Consolidation&lt;br&gt;&lt;/b&gt;&lt;/font&gt;&lt;/div&gt;&lt;div style=&quot;font-size: 15px;&quot;&gt;&lt;font style=&quot;font-size: 15px;&quot;&gt;&lt;b&gt;&amp;amp;&lt;/b&gt;&lt;/font&gt;&lt;/div&gt;&lt;font style=&quot;font-size: 15px;&quot;&gt;&lt;b style=&quot;&quot;&gt;Decision&lt;/b&gt;&lt;/font&gt;&lt;div&gt;&lt;font style=&quot;font-size: 15px;&quot;&gt;&lt;b style=&quot;&quot;&gt;Assistance&lt;/b&gt;&lt;/font&gt;&lt;/div&gt;" style="text;html=1;align=center;verticalAlign=middle;resizable=0;points=[];autosize=1;strokeColor=none;fillColor=none;" parent="n4PZmjlwthrs9iT0Sboe-9" vertex="1">
          <mxGeometry x="5" y="30" width="120" height="100" as="geometry" />
        </mxCell>
      </root>
    </mxGraphModel>
  </diagram>
</mxfile>
